<?xml version="1.0" standalone="no"?>
<!DOCTYPE svg PUBLIC "-//W3C//DTD SVG 20010904//EN"
 "http://www.w3.org/TR/2001/REC-SVG-20010904/DTD/svg10.dtd">
<svg version="1.0" xmlns="http://www.w3.org/2000/svg"
 width="101.000000pt" height="101.000000pt" viewBox="0 0 101.000000 101.000000"
 preserveAspectRatio="xMidYMid meet">
<metadata>
Created by potrace 1.11, written by Peter Selinger 2001-2013
</metadata>
<g transform="translate(0.000000,101.000000) scale(0.100000,-0.100000)"
fill="#000000" stroke="none">
<path d="M260 952 c0 -5 23 -103 50 -218 28 -115 73 -306 101 -424 27 -118 54
-224 59 -236 11 -28 96 -34 104 -7 28 96 47 209 40 241 -4 20 -7 40 -6 45 1 4
-2 7 -7 7 -5 0 -17 -35 -26 -77 -30 -138 -42 -177 -53 -181 -6 -2 -14 7 -17
20 -3 13 -17 73 -31 133 -14 61 -40 173 -59 250 -30 123 -76 317 -90 383 -4
14 -1 22 8 22 10 0 34 -80 61 -215 11 -53 108 -455 118 -490 l11 -40 8 30 c5
17 19 77 32 136 20 91 22 110 11 141 -7 20 -10 39 -7 42 4 3 2 6 -4 6 -6 0
-16 -30 -23 -66 -8 -40 -16 -61 -20 -53 -4 8 -26 95 -50 194 -23 99 -52 221
-64 270 l-22 90 -62 3 c-34 2 -62 -1 -62 -6z"/>
<path d="M674 952 c-20 -3 -34 -47 -68 -217 -2 -11 -11 -51 -20 -90 -14 -60
-14 -77 -3 -120 15 -54 14 -56 32 30 30 145 78 342 84 348 19 19 18 -14 -5
-113 -87 -376 -85 -367 -73 -415 6 -25 13 -44 15 -42 3 3 68 278 78 332 2 11
16 72 31 135 15 63 30 124 32 135 4 18 -1 20 -39 20 -24 0 -52 -1 -64 -3z"/>
</g>
</svg>
